<?xml version="1.0" standalone="no"?>
<!DOCTYPE svg PUBLIC "-//W3C//DTD SVG 20010904//EN"
 "http://www.w3.org/TR/2001/REC-SVG-20010904/DTD/svg10.dtd">
<svg version="1.0" xmlns="http://www.w3.org/2000/svg"
 width="500.000000pt" height="500.000000pt" viewBox="0 0 500.000000 500.000000"
 preserveAspectRatio="xMidYMid meet">

<g transform="translate(0.000000,500.000000) scale(0.100000,-0.100000)"
fill="#000000" stroke="none">
<path d="M1832 2713 c-11 -20 -192 -482 -192 -490 0 -2 26 -3 57 -1 l56 3 17
50 17 50 104 0 103 0 21 -52 20 -53 53 0 c51 0 53 1 46 23 -7 24 -184 471
-187 474 -2 1 -25 5 -54 9 -44 5 -52 4 -61 -13z m84 -186 c9 -28 23 -64 31
-79 l14 -28 -66 0 c-36 0 -65 3 -65 8 0 19 55 160 61 156 4 -2 15 -28 25 -57z"/>
<path d="M2310 2717 c-53 -17 -116 -86 -134 -148 -55 -185 30 -346 192 -366
92 -10 187 39 218 114 19 45 18 50 -17 62 -50 17 -68 14 -75 -14 -10 -40 -59
-75 -105 -75 -31 0 -47 7 -77 34 -37 34 -37 35 -40 124 -3 70 0 98 13 126 33
70 128 89 182 39 16 -16 32 -34 34 -41 3 -10 15 -12 40 -7 58 11 64 18 49 54
-37 89 -166 134 -280 98z"/>
<path d="M1230 2460 l0 -260 55 0 55 0 0 110 0 110 105 0 105 0 0 45 0 45
-105 0 -105 0 0 60 0 60 126 0 125 0 -3 43 -3 42 -177 3 -178 2 0 -260z"/>
<path d="M2690 2465 l0 -255 50 0 50 0 0 255 0 255 -50 0 -50 0 0 -255z"/>
<path d="M2900 2465 l0 -255 181 0 180 0 -3 43 -3 42 -127 3 -128 3 0 209 0
210 -50 0 -50 0 0 -255z"/>
<path d="M1900 1825 l0 -235 45 0 45 0 1 173 1 172 37 -145 c21 -80 41 -158
45 -173 6 -26 10 -28 53 -25 l47 3 42 168 c23 93 45 171 48 174 3 4 6 -73 6
-170 l0 -177 40 0 40 0 0 235 0 235 -69 0 c-58 0 -71 -3 -75 -17 -3 -10 -21
-79 -41 -153 -20 -73 -37 -135 -39 -137 -1 -2 -17 52 -35 119 -18 68 -37 138
-42 156 l-11 32 -69 0 -69 0 0 -235z"/>
<path d="M2494 1825 l-91 -235 51 0 52 0 18 55 17 56 97 -3 97 -3 19 -52 19
-53 52 0 53 0 -93 233 -93 232 -53 3 -54 3 -91 -236z m175 40 c17 -44 31 -81
31 -82 0 -2 -27 -3 -60 -3 -33 0 -60 3 -60 8 0 10 54 162 57 159 1 -1 16 -38
32 -82z"/>
<path d="M2930 1825 l0 -235 45 0 45 0 0 95 c0 106 6 115 62 99 24 -7 47 -31
96 -102 l64 -92 54 0 c54 0 54 0 43 23 -32 60 -103 159 -122 169 -20 10 -18
12 21 31 50 23 75 64 75 122 0 51 -16 81 -56 105 -28 17 -51 20 -179 20 l-148
0 0 -235z m277 129 c15 -23 15 -29 2 -52 -17 -31 -61 -44 -132 -40 l-52 3 -3
58 -3 57 85 0 c81 0 86 -1 103 -26z"/>
<path d="M3410 1825 l0 -235 45 0 45 0 0 70 c0 66 2 72 36 110 20 22 40 38 44
35 4 -3 35 -52 69 -110 l61 -105 61 0 61 0 -23 38 c-13 20 -48 75 -79 122 -95
142 -95 119 6 221 l89 89 -65 0 -65 0 -97 -102 -97 -103 -1 103 0 102 -45 0
-45 0 0 -235z"/>
<path d="M3880 1825 l0 -235 180 0 180 0 0 40 0 40 -130 0 -130 0 0 65 0 65
120 0 120 0 0 40 0 40 -120 0 -120 0 0 50 0 50 125 0 125 0 0 40 0 40 -175 0
-175 0 0 -235z"/>
<path d="M4290 2020 l0 -40 70 0 70 0 0 -195 0 -195 50 0 50 0 0 195 0 194 68
3 67 3 3 38 3 37 -190 0 -191 0 0 -40z"/>
</g>
</svg>
